<?xml version="1.0" standalone="no"?><!DOCTYPE svg PUBLIC "-//W3C//DTD SVG 1.1//EN" "http://www.w3.org/Graphics/SVG/1.1/DTD/svg11.dtd"><svg width="100" height="100" viewBox="0 0 100 100" version="1.1" xmlns="http://www.w3.org/2000/svg" xmlns:xlink="http://www.w3.org/1999/xlink"><defs><style type="text/css"><![CDATA[
@font-face { font-family: ifont; src: url("//at.alicdn.com/t/font_1442373896_4754455.eot?#iefix") format("embedded-opentype"), url("//at.alicdn.com/t/font_1442373896_4754455.woff") format("woff"), url("//at.alicdn.com/t/font_1442373896_4754455.ttf") format("truetype"), url("//at.alicdn.com/t/font_1442373896_4754455.svg#ifont") format("svg"); }

]]></style></defs><g class="transform-group"><g transform="scale(0.09765625, 0.09765625)"><path d="M512 0C229.236 0 0 229.222 0 512c0 282.778 229.233 512 512 512 282.775 0 512-229.232 512-512C1024 229.235 794.765 0 512 0zM565.17 878.346c-84.265 12.091-170.67-5.564-243.309-49.666-12.426-7.557-16.37-23.739-8.835-36.146 7.605-12.33 23.714-16.387 36.142-8.835 62.222 37.819 136.275 52.94 208.526 42.56 172.21-24.7 292.299-185.01 267.58-357.362-11.982-83.448-55.751-157.244-123.255-207.784-67.485-50.562-150.617-71.787-234.045-59.79-172.395 24.709-292.431 185.036-267.67 357.35 6.487 45.111 22.152 87.263 46.613 125.264 7.848 12.245 4.279 28.576-7.868 36.368-12.221 7.867-28.517 4.329-36.364-7.87-28.558-44.438-46.86-93.622-54.468-146.283-13.969-97.348 10.808-194.376 69.834-273.118 10.73-14.376 22.375-27.81 34.837-40.272 55.899-55.897 127.976-92.153 207.608-103.589 97.345-13.975 194.348 10.825 273.069 69.79 78.744 58.985 129.807 145.097 143.792 242.458C906.228 662.474 766.119 849.458 565.17 878.346zM627.831 426.49c-15.251 5.076-31.727-3.124-36.783-18.364-6.922-20.646-31.756-44.768-79.054-44.768-39.156 0-62.377 26.332-65.082 52.33-3.314 31.988 23.917 57.984 71.041 67.843 94.278 19.731 121.935 82.776 116.959 130.772-5.188 50.223-43.617 89.914-93.84 101.172l0 36.434c0 16.053-13.026 29.08-29.079 29.08s-29.081-13.027-29.081-29.08L482.912 716.49c-59.903-9.639-93.796-48.361-105.108-82.195-5.104-15.223 3.126-31.709 18.363-36.783 15.209-5.133 31.713 3.125 36.786 18.361 6.923 20.646 31.755 44.771 79.056 44.771 39.153 0 62.376-26.334 65.079-52.33 3.315-31.99-23.919-57.984-71.041-67.844-94.277-19.732-121.933-82.777-116.959-130.772 5.19-50.222 43.619-89.916 93.841-101.17L482.929 272.09c0-16.053 13.026-29.079 29.08-29.079 16.049 0 29.077 13.026 29.077 29.079l0 35.42c59.906 9.641 93.8 48.359 105.11 82.194C651.3 404.927 643.07 421.415 627.831 426.49z" fill="#45c8dc"></path></g></g></svg>