<?xml version="1.0" standalone="no"?><!DOCTYPE svg PUBLIC "-//W3C//DTD SVG 1.1//EN" "http://www.w3.org/Graphics/SVG/1.1/DTD/svg11.dtd"><svg width="100" height="100" viewBox="0 0 100 100" version="1.1" xmlns="http://www.w3.org/2000/svg" xmlns:xlink="http://www.w3.org/1999/xlink"><defs><style type="text/css"><![CDATA[
@font-face { font-family: ifont; src: url("//at.alicdn.com/t/font_1442373896_4754455.eot?#iefix") format("embedded-opentype"), url("//at.alicdn.com/t/font_1442373896_4754455.woff") format("woff"), url("//at.alicdn.com/t/font_1442373896_4754455.ttf") format("truetype"), url("//at.alicdn.com/t/font_1442373896_4754455.svg#ifont") format("svg"); }

]]></style></defs><g class="transform-group"><g transform="scale(0.09765625, 0.09765625)"><path d="M768 512 768 768.196369C768 791.652066 748.554197 810.666667 725.227806 810.666667L298.772194 810.666667C275.149764 810.666667 256 791.224986 256 768.196369L256 512 227.324459 512C156.589201 512 142.637926 474.807731 196.539418 428.606451L447.5017 213.495923C483.119441 182.966434 541.016845 183.094699 576.484945 213.495923L827.447228 428.606451C881.180378 474.663437 867.348045 512 796.662187 512L768 512ZM512 1024C794.769792 1024 1024 794.769792 1024 512 1024 229.230208 794.769792 0 512 0 229.230208 0 0 229.230208 0 512 0 794.769792 229.230208 1024 512 1024ZM426.666667 683.066406C426.666667 659.281485 445.58307 640 469.733073 640L554.266927 640C578.051849 640 597.333333 658.916403 597.333333 683.066406L597.333333 810.666667 426.666667 810.666667 426.666667 683.066406Z" fill="#45c8dc"></path></g></g></svg>