<?xml version="1.0" standalone="no"?><!DOCTYPE svg PUBLIC "-//W3C//DTD SVG 1.1//EN" "http://www.w3.org/Graphics/SVG/1.1/DTD/svg11.dtd"><svg width="100" height="100" viewBox="0 0 100 100" version="1.1" xmlns="http://www.w3.org/2000/svg" xmlns:xlink="http://www.w3.org/1999/xlink"><defs><style type="text/css"><![CDATA[
@font-face { font-family: ifont; src: url("//at.alicdn.com/t/font_1442373896_4754455.eot?#iefix") format("embedded-opentype"), url("//at.alicdn.com/t/font_1442373896_4754455.woff") format("woff"), url("//at.alicdn.com/t/font_1442373896_4754455.ttf") format("truetype"), url("//at.alicdn.com/t/font_1442373896_4754455.svg#ifont") format("svg"); }

]]></style></defs><g class="transform-group"><g transform="scale(0.09765625, 0.09765625)"><path d="M512 10.77248C235.178667 10.77248 10.77248 235.18208 10.77248 512 10.77248 788.814507 235.178667 1013.22752 512 1013.22752c276.814507 0 501.22752-224.413013 501.22752-501.224107C1013.22752 235.18208 788.814507 10.77248 512 10.77248zM261.95968 299.946667c17.57184 0 31.819093 14.247253 31.819093 31.81568 0 17.57184-14.247253 31.819093-31.819093 31.819093-17.565013 0-31.812267-14.247253-31.812267-31.819093S244.394667 299.946667 261.95968 299.946667zM263.65952 724.053333c-17.565013 0-31.812267-14.247253-31.812267-31.819093s14.247253-31.819093 31.812267-31.819093c17.57184 0 31.819093 14.247253 31.819093 31.819093S281.234773 724.053333 263.65952 724.053333zM263.65952 545.713493c-17.565013 0-31.812267-14.247253-31.812267-31.819093 0-17.565013 14.247253-31.81568 31.812267-31.81568 17.57184 0 31.819093 14.247253 31.819093 31.81568C295.478613 531.46624 281.234773 545.713493 263.65952 545.713493zM770.218667 718.987947 388.01408 718.987947c-13.038933 0-23.63392-11.987627-23.63392-26.74688 0-14.772907 10.594987-26.760533 23.63392-26.760533L770.218667 665.480533c13.038933 0 23.63392 11.987627 23.63392 26.760533C793.852587 707.00032 783.26784 718.987947 770.218667 718.987947zM770.218667 540.648107 388.01408 540.648107c-13.038933 0-23.63392-11.9808-23.63392-26.74688 0-14.769493 10.594987-26.753707 23.63392-26.753707L770.218667 487.14752c13.038933 0 23.63392 11.984213 23.63392 26.753707C793.852587 528.667307 783.26784 540.648107 770.218667 540.648107zM770.218667 362.315093 388.01408 362.315093c-13.038933 0-23.63392-11.984213-23.63392-26.753707 0-14.76608 10.594987-26.74688 23.63392-26.74688L770.218667 308.814507c13.038933 0 23.63392 11.9808 23.63392 26.74688C793.852587 350.33088 783.26784 362.315093 770.218667 362.315093z" fill="#45c8dc"></path></g></g></svg>