<?xml version="1.0" standalone="no"?><!DOCTYPE svg PUBLIC "-//W3C//DTD SVG 1.1//EN" "http://www.w3.org/Graphics/SVG/1.1/DTD/svg11.dtd"><svg t="1532933336708" class="icon" style="" viewBox="0 0 1024 1024" version="1.1" xmlns="http://www.w3.org/2000/svg" p-id="504" xmlns:xlink="http://www.w3.org/1999/xlink" width="200" height="200"><defs><style type="text/css"></style></defs><path d="M0 512C0 229.259738 229.259738 0 512 0S1024 229.259738 1024 512 794.740262 1024 512 1024 0 794.740262 0 512z m635.447895-256c-27.303686 0-54.043948 6.828157-77.367895 21.047895-44.371843 25.032105-71.112105 69.403948-71.112105 117.76v237.800524c0 27.871581-15.927895 53.471581-42.663685 68.831581-15.36 8.531843-32.428157 13.083948-50.06421 13.083948-51.2 0-92.727895-36.980262-92.727895-81.92 0-13.651843 3.411843-26.740262 10.807895-38.683948 10.807895-18.203948 30.152105-32.428157 54.611843-39.82421 2.843948-1.13579 5.12-1.13579 6.260262-1.13579 15.927895 0 28.439476-12.516052 28.439476-28.443948s-12.511581-28.443948-28.439476-28.443947c-6.828157 0-13.656314 1.13579-23.896315 3.979738-36.407895 10.812367-66.56 33.563948-85.331842 64.283947-12.516052 21.052367-19.339738 44.376314-19.339738 68.268158 0 76.8 67.127895 138.807895 149.61579 138.807895 27.308157 0 54.043948-6.823686 77.940262-20.48 44.371843-25.027633 71.107633-69.399476 71.107633-117.76V394.807895c0-27.876052 15.927895-53.476052 42.668157-68.836052 15.36-8.531843 32.428157-13.083948 50.059738-13.083948 50.632105 0 92.16 36.980262 92.16 81.92 0 13.656314-3.411843 26.740262-10.807895 38.683948-10.807895 18.776314-30.152105 33.000524-54.611843 39.824209-2.843948 1.13579-5.12 1.13579-6.260262 1.135791-15.927895 0-28.439476 12.520524-28.439476 28.443947 0 15.932367 12.511581 28.448419 28.439476 28.44842 6.828157 0 14.22421-1.140262 23.896315-3.98421 36.407895-10.807895 66.56-33.563948 85.331843-64.283948 12.516052-21.047895 19.34421-44.371843 19.344209-68.268157 0-76.8-67.132367-138.807895-149.620262-138.807895z" p-id="505" fill="#646464"></path></svg>